<svg xmlns="http://www.w3.org/2000/svg" viewBox="0 0 565.21 413.45"><defs><style>.cls-1{fill:none;stroke:#1b1464;stroke-miterlimit:10;stroke-width:30px;}.cls-2{fill:#1b1464;}</style></defs><title>logoAsset 1</title><g id="Layer_2" data-name="Layer 2"><g id="Layer_1-2" data-name="Layer 1"><line class="cls-1" x1="10" y1="102.49" x2="10" y2="413.45"/><line class="cls-1" x1="555.21" y1="332.63" x2="555.21" y2="413.45"/><polyline class="cls-1" points="10 332.63 555.21 332.63 555.21 236.74 10 236.74"/><path class="cls-1" d="M10,181.56h92s34,2.36,34,55.18"/></g><g id="Layer_2-2" data-name="Layer 2"><path class="cls-2" d="M409.67,177.37A205.57,205.57,0,0,1,416.79,205a185.51,185.51,0,0,0-8.67-77.69C375.57,29.76,270.11-22.93,172.58,9.63a185.65,185.65,0,0,0-110,98.28,202.9,202.9,0,0,1,89.13-59.39C258.55,12.88,374,70.56,409.67,177.37Z"/></g></g></svg>